<svg height="480pt" viewBox="0 0 480 480" width="480pt" xmlns="http://www.w3.org/2000/svg"><path d="m328 432h-176c-17.671875 0-32 14.328125-32 32v16h240v-16c0-17.671875-14.328125-32-32-32zm0 0" fill="#656665"/><path d="m208 384h64v48h-64zm0 0" fill="#999"/><path d="m112 80h-96c-8.839844 0-16 7.160156-16 16v272c0 8.839844 7.160156 16 16 16h448c8.839844 0 16-7.160156 16-16v-272c0-8.839844-7.160156-16-16-16h-96" fill="#656665"/><path d="m112 112h-80v240h416v-240h-80" fill="#85b6cf"/><path d="m112 112h-80v240h376v-240h-40" fill="#94cce7"/><path d="m368 320h-256v-320h208v40h48zm0 0" fill="#d9d7d8"/><path d="m224 144h-80v-24c0-22.089844 17.910156-40 40-40s40 17.910156 40 40zm0 0" fill="#599072"/><path d="m172 82.03125c-16.183594 5.128906-28 20.089844-28 37.96875v24h56v-24c0-17.878906-11.816406-32.839844-28-37.96875zm0 0" fill="#70b48f"/><path d="m208 56c0 13.253906-10.746094 24-24 24s-24-10.746094-24-24 10.746094-24 24-24 24 10.746094 24 24zm0 0" fill="#dcb29c"/><path d="m192 56c0-12.441406-7.164062-22.527344-16-22.527344s-16 10.085938-16 22.527344 7.164062 22.527344 16 22.527344 16-10.085938 16-22.527344zm0 0" fill="#f3c6b0"/><path d="m224 288h-80v-24c0-22.089844 17.910156-40 40-40s40 17.910156 40 40zm0 0" fill="#599072"/><path d="m172 226.03125c-16.183594 5.128906-28 20.089844-28 37.96875v24h56v-24c0-17.878906-11.816406-32.839844-28-37.96875zm0 0" fill="#70b48f"/><path d="m208 200c0 13.253906-10.746094 24-24 24s-24-10.746094-24-24 10.746094-24 24-24 24 10.746094 24 24zm0 0" fill="#dcb29c"/><path d="m192 200c0-12.441406-7.164062-22.527344-16-22.527344s-16 10.085938-16 22.527344 7.164062 22.527344 16 22.527344 16-10.085938 16-22.527344zm0 0" fill="#f3c6b0"/><path d="m368 40-48-40v40zm0 0" fill="#bab8b9"/><g fill="#efedee"><path d="m248 136h96v16h-96zm0 0"/><path d="m248 104h96v16h-96zm0 0"/><path d="m248 72h32v16h-32zm0 0"/><path d="m248 280h96v16h-96zm0 0"/><path d="m248 248h96v16h-96zm0 0"/><path d="m248 216h32v16h-32zm0 0"/></g></svg>