<?xml version="1.0" encoding="utf-8"?>
<!-- Generator: Adobe Illustrator 18.1.0, SVG Export Plug-In . SVG Version: 6.00 Build 0)  -->
<svg version="1.1" id="Layer_1" xmlns="http://www.w3.org/2000/svg" xmlns:xlink="http://www.w3.org/1999/xlink" x="0px" y="0px"
	 viewBox="0 0 150 150" enable-background="new 0 0 150 150" xml:space="preserve">
<g>
	<path fill="#3E7692" d="M93.7,99.6C93.7,99.6,93.7,99.5,93.7,99.6C93.7,99.5,93.7,99.6,93.7,99.6z"/>
	<path fill="#3E7692" d="M93.8,98.4C93.8,98.4,93.8,98.3,93.8,98.4C93.8,98.3,93.8,98.4,93.8,98.4z"/>
	<path fill="#3E7692" d="M93.6,100.2C93.6,100.1,93.6,100.1,93.6,100.2C93.6,100.1,93.6,100.1,93.6,100.2z"/>
	<path fill="#3E7692" d="M93.5,100.7C93.5,100.7,93.5,100.7,93.5,100.7C93.5,100.7,93.5,100.7,93.5,100.7z"/>
	<path fill="#3E7692" d="M93.8,99C93.8,99,93.8,98.9,93.8,99C93.8,98.9,93.8,99,93.8,99z"/>
	<path fill="#3E7692" d="M93.9,97.8c0,0,0-0.1,0-0.1C93.9,97.8,93.9,97.8,93.9,97.8z"/>
	<path fill="#3E7692" d="M115.9,95.1c3.3-20.1,15.6-41.6,15.6-41.6l-24.7-8.2c0,0-8.2,17.4-8.7,60.9
		C105,100.6,110.7,96.9,115.9,95.1z"/>
	<path fill="#3E7692" d="M93.5,101.3C93.5,101.3,93.5,101.3,93.5,101.3C93.5,101.3,93.5,101.3,93.5,101.3z"/>
	<path fill="#3E7692" d="M93.2,102.4C93.2,102.4,93.2,102.4,93.2,102.4C93.2,102.4,93.2,102.4,93.2,102.4z"/>
	<path fill="#3E7692" d="M93.4,101.8C93.4,101.8,93.4,101.8,93.4,101.8C93.4,101.8,93.4,101.8,93.4,101.8z"/>
	<path fill="#3E7692" d="M93,102.9C93,102.9,93,102.9,93,102.9C93,102.9,93,102.9,93,102.9z"/>
	<path fill="#3E7692" d="M94,91.6c0,0,0-0.1,0-0.1C94,91.5,94,91.5,94,91.6z"/>
	<path fill="#3E7692" d="M94,91.9c0,0,0-0.1,0-0.1C94,91.8,94,91.8,94,91.9z"/>
	<path fill="#3E7692" d="M94,91.3c0,0,0-0.1,0-0.1C94,91.2,94,91.2,94,91.3z"/>
	<path fill="#3E7692" d="M94,92.3c0-0.1,0-0.1,0-0.2C94,92.1,94,92.2,94,92.3z"/>
	<path fill="#3E7692" d="M94,90.6C94,90.6,94,90.6,94,90.6C94,90.6,94,90.6,94,90.6z"/>
	<path fill="#3E7692" d="M94,91c0,0,0-0.1,0-0.1C94,91,94,91,94,91z"/>
	<path fill="#3E7692" d="M94,93.4c0,0.1,0,0.1,0,0.2C94,93.5,94,93.4,94,93.4z"/>
	<path fill="#3E7692" d="M94,92.6c0-0.1,0-0.1,0-0.2C94,92.5,94,92.6,94,92.6z"/>
	<path fill="#3E7692" d="M94,94c0,0,0-0.1,0-0.1C94,93.9,94,93.9,94,94z"/>
	<path fill="#3E7692" d="M94,96.1c0,0,0-0.1,0-0.1C94,96,94,96.1,94,96.1z"/>
	<path fill="#3E7692" d="M94,95.6c0,0,0-0.1,0-0.1C94,95.5,94,95.5,94,95.6z"/>
	<path fill="#3E7692" d="M94,93.1c0-0.1,0-0.1,0-0.2C94,93,94,93,94,93.1z"/>
	<path fill="#3E7692" d="M93.9,96.7c0,0,0-0.1,0-0.1C93.9,96.6,93.9,96.6,93.9,96.7z"/>
	<path fill="#3E7692" d="M94,95c0,0,0-0.1,0-0.1C94,94.9,94,95,94,95z"/>
	<path fill="#3E7692" d="M94,94.5c0-0.1,0-0.1,0-0.2C94,94.4,94,94.4,94,94.5z"/>
	<path fill="#3E7692" d="M93.9,97.2c0,0,0-0.1,0-0.1C93.9,97.2,93.9,97.2,93.9,97.2z"/>
	<path fill="#51647D" d="M89,96.8l5-6.4c0,0,0,0,0,0.1c0,0,0,0,0,0.1c0,0.1,0,0.2,0,0.3c0,0,0,0.1,0,0.1c0,0,0,0.1,0,0.1
		c0,0,0,0.1,0,0.1c0,0,0,0.1,0,0.1c0,0,0,0.1,0,0.1c0,0.1,0,0.1,0,0.2c0,0,0,0.1,0,0.1c0,0.1,0,0.1,0,0.2c0,0.1,0,0.1,0,0.2
		c0,0.1,0,0.1,0,0.2c0,0.1,0,1.7,0,1.9c0,0.1,0,0.1,0,0.2c0,0.1,0,0.2,0,0.4c0,0,0,0.1,0,0.1c0,0.1,0,0.3,0,0.4c0,0,0,0.1,0,0.1
		c0,0.1,0,0.3,0,0.4c0,0,0,0.1,0,0.1c0,0.1,0,0.3,0,0.4c0,0,0,0.1,0,0.1c0,0.2,0,0.3,0,0.5c0,0,0,0.1,0,0.1c0,0.2,0,0.3,0,0.5
		c0,0,0,0.1,0,0.1c0,0.2,0,0.3,0,0.5c0,0,0,0.1,0,0.1c0,0.2,0,0.3,0,0.5c0,0,0,0.1,0,0.1c0,0.2,0,0.3-0.1,0.5c0,0,0,0,0,0.1
		c0,0.2,0,0.4-0.1,0.5c0,0,0,0,0,0.1c0,0.2,0,0.4-0.1,0.5c0,0,0,0,0,0c0,0.2-0.1,0.4-0.1,0.5c0,0,0,0,0,0c0,0.2-0.1,0.4-0.1,0.5
		c0,0,0,0,0,0c0,0.2-0.1,0.4-0.1,0.5c0,0-0.1,0-0.1,0c0,0.2-0.2,0.3-0.2,0.5c0,0,0,0,0,0c0,0.7-0.3,1.3-0.6,1.8l5.6,1.7
		c0-0.1,0-0.2,0-0.3c0.5-43.5,8.7-60.9,8.7-60.9L92,47.5C90.2,60.1,88.6,77,89,96.8z"/>
	<path fill="#00A5B2" d="M58.3,106.2c-0.2-0.1-0.5-0.2-0.7-0.3C57.9,106,58.1,106.1,58.3,106.2z"/>
	<path fill="#00A5B2" d="M35.8,92.7c-1.9-17.6-6.7-47.4-18.4-59.3C28,47.6,33.4,75.8,35.8,92.7z"/>
	<path fill="#00A5B2" d="M40.3,101.8c-0.4,0-0.7,0-1.1,0C39.6,101.8,40,101.8,40.3,101.8z"/>
	<path fill="#00A5B2" d="M61.8,107.3c-0.7-0.1-1.3-0.2-1.6-0.3c18.5,2.8,27.9-9,27.9-9l0.9-1.2c0,0,0,0,0,0
		c-0.4-19.8,1.2-36.7,3-49.4c2.3-15.6,5-24.8,5-24.8C92.4,20.6,57,10.9,57,10.9L15.9,31.4c0.1,0.1,0.2,0.3,0.3,0.4l41.3-19.4
		L61.8,107.3z"/>
	<path fill="#00A5B2" d="M38.1,101.8c0.4,0,0.7,0,1.1,0C38.8,101.8,38.4,101.8,38.1,101.8z"/>
	<path fill="#00A5B2" d="M37,101.9c0.4,0,0.7,0,1.1-0.1C37.7,101.8,37.3,101.8,37,101.9C37,101.9,37,101.9,37,101.9z"/>
	<path fill="#00A5B2" d="M54.8,104.8c-0.3-0.1-0.6-0.2-0.9-0.3C54.2,104.6,54.5,104.7,54.8,104.8z"/>
	<path fill="#00A5B2" d="M53.1,104.2c-0.3-0.1-0.6-0.2-1-0.3C52.5,104,52.8,104.1,53.1,104.2z"/>
	<path fill="#00A5B2" d="M46.9,102.5c-0.3-0.1-0.7-0.1-1-0.2C46.3,102.4,46.6,102.5,46.9,102.5z"/>
	<path fill="#00A5B2" d="M49.9,103.2c-0.3-0.1-0.7-0.2-1-0.2C49.3,103.1,49.6,103.1,49.9,103.2z"/>
	<path fill="#00A5B2" d="M56.6,105.4c-0.3-0.1-0.6-0.2-0.9-0.3C56,105.2,56.3,105.3,56.6,105.4z"/>
	<path fill="#00A5B2" d="M48.4,102.9c-0.3-0.1-0.7-0.1-1-0.2C47.7,102.7,48.1,102.8,48.4,102.9z"/>
	<path fill="#00A5B2" d="M45.5,102.3c-0.4-0.1-0.7-0.1-1-0.2C44.8,102.2,45.2,102.2,45.5,102.3z"/>
	<path fill="#00A5B2" d="M44.2,102.1c-0.4,0-0.7-0.1-1.1-0.1C43.4,102,43.8,102,44.2,102.1z"/>
	<path fill="#00A5B2" d="M41.6,101.8c-0.4,0-0.7,0-1.1,0C40.8,101.8,41.2,101.8,41.6,101.8z"/>
	<path fill="#00A5B2" d="M42.8,101.9c-0.4,0-0.7-0.1-1.1-0.1C42.1,101.9,42.5,101.9,42.8,101.9z"/>
	<path fill="#00A5B2" d="M51.5,103.7c-0.3-0.1-0.6-0.2-1-0.3C50.9,103.5,51.2,103.6,51.5,103.7z"/>
	<path fill="#3E7692" d="M35.8,92.7c0.4,3.7,0.7,6.8,0.8,9.2c0.1,0,0.2,0.1,0.3,0.1c0.4,0,0.7,0,1.1,0c0,0,0,0,0,0
		c0.4,0,0.7,0,1.1,0c0,0,0,0,0.1,0c0.4,0,0.7-0.1,1.1-0.1c0,0,0.1-0.1,0.1-0.1c0.4,0,0.7,0,1.1,0c0.1,0,0.1,0,0.2,0
		c0.4,0,0.7,0,1.1,0.1c0.1,0,0.2,0,0.3,0c0.4,0,0.7,0.1,1.1,0.1c0.1,0,0.2,0,0.3,0c0.3,0,0.7,0.1,1,0.2c0.1,0,0.3,0,0.4,0.1
		c0.3,0.1,0.7,0.1,1,0.2c0.2,0,0.3,0.1,0.5,0.1c0.3,0.1,0.7,0.1,1,0.2c0.2,0,0.4,0.1,0.5,0.1c0.3,0.1,0.7,0.2,1,0.2
		c0.2,0.1,0.4,0.1,0.6,0.2c0.3,0.1,0.6,0.2,1,0.3c0.2,0.1,0.4,0.1,0.7,0.2c0.3,0.1,0.6,0.2,1,0.3c0.2,0.1,0.5,0.2,0.8,0.3
		c0.3,0.1,0.6,0.2,0.9,0.3c0.3,0.1,0.6,0.2,0.9,0.3c0.3,0.1,0.6,0.2,0.9,0.3c0.3,0.1,0.7,0.3,1.1,0.4c0.2,0.1,0.5,0.2,0.7,0.3
		c0.6,0.3,1.2,0.5,1.8,0.8c0.3,0.1,0.9,0.2,1.6,0.3l-4.3-94.9L16.2,31.8l-0.3,0.1c0.5,0.5,1.1,0.9,1.6,1.5
		C29.1,45.3,33.9,75.1,35.8,92.7z"/>
	<path fill="#51647D" d="M89.8,102.3c-12.3,12.8-30.8,8.2-30.8,8.2c-23.1-10.8-32.4-1-32.4-1c11.8-2.6,14.4,5.1,34.9,9.8
		C82.1,123.9,89.8,102.3,89.8,102.3z"/>
	<path fill="#51647D" d="M92.4,115.7c-21.6,18.5-43.7,4.1-43.7,4.1c24.7,27.2,51.9,1.5,61.7-11.3c9.8-12.8,23.6-8.2,23.6-8.2
		C121.7,94.1,114,97.2,92.4,115.7z"/>
</g>
</svg>
